<?xml version="1.0" standalone="no"?><!DOCTYPE svg PUBLIC "-//W3C//DTD SVG 1.1//EN" "http://www.w3.org/Graphics/SVG/1.1/DTD/svg11.dtd"><svg class="icon" width="200px" height="200.00px" viewBox="0 0 1024 1024" version="1.1" xmlns="http://www.w3.org/2000/svg"><path d="M161.845828 807.96472c-161.665197-2.528841-287.565355-448.146763 65.388605-480.479802C327.123655-63.58229 813.203034 68.820603 827.834186 330.555654c258.844946 70.626918 248.910213 379.868054 44.254719 478.312224-230.4858 13.1861-710.243076-0.903158-710.243077-0.903158z" fill="#86D0F3" /><path d="M190.746869 779.244311C52.383136 781.231258-92.48333 404.072676 253.24537 356.205327c81.284177-374.810372 536.836832-252.161581 550.564826-10.83789 238.614218 65.027342 235.904745 344.464279 47.144823 435.141295-216.396543 8.670312-660.20815-1.264421-660.20815-1.264421z" fill="#1384C7" /><path d="M512.451579 85.25807c-132.222261-11.379785-247.28453 95.192803-285.217146 245.116952C-125.719527 362.708061 0 808.325983 161.845828 810.854824c0 0 153.536779 4.877051 350.605751 5.780209V85.25807z" fill="#FFFFFF" opacity=".1" /><path d="M667.252778 535.39178l-136.557417 236.627271c-9.212207 16.076204-32.333039 16.076204-41.545246 0l-136.557418-236.627271c-9.212207-16.076204 2.34821-36.126301 20.772623-36.126301h73.15576V304.544717h126.803316v194.901393h73.155759c18.424413 0 29.98483 20.050097 20.772623 35.94567z" fill="#FFFFFF" /></svg>