<?xml version="1.0" standalone="no"?><!DOCTYPE svg PUBLIC "-//W3C//DTD SVG 1.1//EN" "http://www.w3.org/Graphics/SVG/1.1/DTD/svg11.dtd"><svg class="icon" width="200px" height="200.00px" viewBox="0 0 1024 1024" version="1.1" xmlns="http://www.w3.org/2000/svg"><path d="M358.4 725.333333H213.333333c-70.698667 0-128-78.634667-128-149.333333S142.634667 426.666667 213.333333 426.666667h42.666667V341.333333h640v149.333334A320 320 0 0 1 358.4 725.333333z m-65.493333-85.333333a318.08 318.08 0 0 1-36.224-128H213.333333c-23.552 0-42.666667 40.448-42.666666 64S189.781333 640 213.333333 640h79.573334z" fill="#000000" /><path d="M256 896m42.666667 0l554.666666 0q42.666667 0 42.666667 42.666667l0 0q0 42.666667-42.666667 42.666666l-554.666666 0q-42.666667 0-42.666667-42.666666l0 0q0-42.666667 42.666667-42.666667Z" fill="#000000" opacity=".3" /><path d="M346.282667 0l49.365333 49.194667a93.653333 93.653333 0 0 0 10.325333 141.098666l20.693334 15.445334-41.685334 55.893333-20.693333-15.488A163.370667 163.370667 0 0 1 346.282667 0zM559.616 42.666667l49.365333 49.194666a93.653333 93.653333 0 0 0 10.325334 141.098667l20.693333 15.445333-41.685333 55.893334-20.693334-15.488A163.370667 163.370667 0 0 1 559.616 42.666667zM772.949333 0l49.365334 49.194667a93.653333 93.653333 0 0 0 10.325333 141.098666l20.693333 15.445334-41.685333 55.893333-20.693333-15.488A163.370667 163.370667 0 0 1 772.949333 0z" fill="#000000" opacity=".3" /></svg>