<svg version="1.2" xmlns="http://www.w3.org/2000/svg" viewBox="0 0 948 384" width="948" height="384">
	<title>kafeijiaonang-svg</title>
	<style>
		.s0 { fill: #fcda4f } 
		.s1 { fill: #eacf32 } 
		.s2 { fill: #ccc033 } 
		.s3 { fill: #99af17 } 
		.s4 { fill: #e58d23 } 
		.s5 { fill: #bf6c0d } 
		.s6 { fill: #ffa730 } 
		.s7 { fill: #ffb74b } 
		.s8 { fill: #ff9079 } 
		.s9 { fill: #ff624b } 
		.s10 { fill: #ff4b34 } 
	</style>
	<path id="Layer" class="s0" d="m296.3 7.3c-16.8-15.2-49.7-2.7-75.4 27.9l0.1-0.3c-58.2 79.2-188.4 90.8-188.4 90.8l2 10.5h177.8c19 4.6 46.9-10.2 68.5-38.3 26.1-34 33-74.6 15.4-90.6z"/>
	<path id="Layer" class="s1" d="m212.3 383.2h-99.3c-3 0-5.9-0.5-8.7-1.3-2.9-0.9-5.5-2.1-8-3.7-2.5-1.6-4.7-3.6-6.6-5.9-1.9-2.2-3.4-4.7-4.6-7.4l-10.5-24.3h176.1l-10.5 24.3c-1.2 2.7-2.7 5.2-4.6 7.4-1.9 2.3-4.1 4.3-6.6 5.9-2.5 1.6-5.2 2.8-8 3.7-2.8 0.8-5.7 1.3-8.7 1.3z"/>
	<path id="Layer" class="s2" d="m165.1 364.9l-10.5-24.3h-80l10.5 24.3c1.2 2.7 2.7 5.2 4.6 7.4 1.9 2.3 4.1 4.3 6.6 5.9 2.5 1.6 5.1 2.8 8 3.7 2.8 0.8 5.7 1.3 8.7 1.3h80c-3 0-5.9-0.5-8.7-1.3-2.9-0.9-5.5-2.1-8-3.7-2.5-1.6-4.7-3.6-6.6-5.9-1.9-2.2-3.4-4.7-4.6-7.4z"/>
	<path id="Layer" class="s2" d="m243.3 355.2h-161.3c-2.5 0-5-0.4-7.4-1.3-2.3-0.8-4.5-2.1-6.5-3.6-1.9-1.6-3.5-3.5-4.8-5.7-1.3-2.1-2.3-4.4-2.8-6.9l-38.9-189.3h282.1l-38.9 189.3c-0.5 2.5-1.5 4.8-2.8 6.9-1.3 2.2-2.9 4.1-4.9 5.7-1.9 1.5-4.1 2.8-6.4 3.6-2.4 0.9-4.9 1.3-7.4 1.3z"/>
	<path id="Layer" class="s1" d="m309.1 148.4h-295.4c-1.7 0-3.3-0.3-4.9-0.9-1.5-0.7-3-1.6-4.2-2.8-1.1-1.2-2.1-2.6-2.7-4.2-0.7-1.6-1-3.2-1-4.9v-1.1c0-1.7 0.3-3.4 1-4.9 0.6-1.6 1.6-3 2.7-4.2 1.2-1.2 2.7-2.1 4.2-2.8 1.6-0.6 3.2-0.9 4.9-0.9h295.4c1.7 0 3.4 0.3 5 0.9 1.5 0.7 2.9 1.6 4.1 2.8 1.2 1.2 2.2 2.6 2.8 4.2 0.6 1.5 1 3.2 1 4.9v1.1c0 1.7-0.4 3.3-1 4.9-0.6 1.6-1.6 3-2.8 4.2-1.2 1.2-2.6 2.1-4.1 2.8-1.6 0.6-3.3 0.9-5 0.9z"/>
	<path id="Layer" class="s3" d="m303.7 148.4h-282.1l3.3 16 35.6 173.3c0.5 2.5 1.5 4.8 2.8 6.9 1.3 2.2 2.9 4.1 4.8 5.7 2 1.5 4.2 2.8 6.5 3.6 2.4 0.9 4.9 1.3 7.4 1.3h80c-2.5 0-5-0.4-7.4-1.3-2.3-0.8-4.5-2.1-6.5-3.6-1.9-1.6-3.5-3.5-4.8-5.7-1.3-2.1-2.3-4.4-2.8-6.9l-33.2-161.3c-1.2-6.2 3.5-12 9.8-12h183.3z"/>
	<path id="Layer" class="s1" d="m209.4 339c-6.7 0-11.9-0.9-13.1-1.1-3.1-0.6-5.9-2.4-7.7-5.1-1.7-2.6-2.4-5.9-1.8-9 0.6-3.1 2.4-5.9 5.1-7.6 2.6-1.8 5.8-2.5 9-1.9 6.2 1.2 17.5 1.3 21.8-2.3 0.6-0.5 1.9-1.6 2-5.3 0.1-6.6 5.5-12 12.1-11.9 1.6 0.1 3.2 0.4 4.6 1 1.5 0.6 2.8 1.5 3.9 2.7 1.1 1.1 1.9 2.4 2.5 3.9 0.6 1.4 0.9 3 0.9 4.6-0.2 12.4-6 19.7-10.8 23.6-8.4 6.8-19.8 8.4-28.5 8.4zm38.2-55.4c-1.7 0-3.5-0.4-5.1-1.2-1.6-0.7-3-1.8-4.1-3.2-1.2-1.3-2-2.9-2.4-4.6-0.5-1.8-0.5-3.6-0.2-5.3l14.2-73.6c0.6-3 2.4-5.8 5.1-7.5 2.6-1.8 5.8-2.4 8.9-1.8 3.1 0.6 5.8 2.4 7.6 5 1.8 2.6 2.5 5.8 1.9 8.9l-14.1 73.5q-0.4 2.1-1.5 3.9-1 1.8-2.6 3.1-1.7 1.4-3.6 2.1-2 0.7-4.1 0.7z"/>
	<path id="Layer" class="s3" d="m131.4 208.8c0 8 3.2 15.6 8.8 21.2 5.6 5.7 13.3 8.8 21.2 8.8 8 0 15.6-3.1 21.2-8.8 5.7-5.6 8.8-13.2 8.8-21.2 0-7.9-3.1-15.6-8.8-21.2-5.6-5.6-13.2-8.8-21.2-8.8-7.9 0-15.6 3.2-21.2 8.8-5.6 5.6-8.8 13.3-8.8 21.2z"/>
	<path id="Layer" class="s4" d="m425.5 121.7h99.4c2.9 0 5.9 0.4 8.7 1.2 2.8 0.9 5.5 2.1 8 3.8 2.4 1.6 4.7 3.5 6.6 5.8 1.9 2.2 3.4 4.8 4.6 7.5l10.5 24.2h-176.2l10.6-24.2c1.1-2.7 2.7-5.2 4.6-7.5 1.9-2.3 4.1-4.2 6.6-5.8 2.4-1.7 5.1-2.9 7.9-3.8 2.9-0.8 5.8-1.2 8.7-1.2z"/>
	<path id="Layer" class="s5" d="m505.5 121.7h-80c-2.9 0-5.8 0.4-8.7 1.2-2.8 0.9-5.5 2.1-7.9 3.8-2.5 1.6-4.7 3.5-6.6 5.8-1.9 2.2-3.5 4.8-4.7 7.5l-10.5 24.2h80l10.5-24.2c1.2-2.7 2.8-5.2 4.7-7.5 1.9-2.3 4.1-4.2 6.6-5.8 2.4-1.7 5.1-2.9 7.9-3.8 2.9-0.8 5.8-1.2 8.7-1.2z"/>
	<path id="Layer" class="s6" d="m394.5 149.6h161.4c10.4 0 19.3 7.3 21.4 17.5l39 189.3h-282.2l39-189.3c0.5-2.4 1.4-4.8 2.7-6.9 1.3-2.2 3-4.1 4.9-5.6 2-1.6 4.1-2.8 6.5-3.7 2.4-0.8 4.8-1.3 7.3-1.3z"/>
	<path id="Layer" class="s7" d="m328.7 356.4h295.4c1.7 0 3.4 0.3 5 1 1.5 0.6 2.9 1.6 4.1 2.8 1.2 1.2 2.2 2.6 2.8 4.1 0.6 1.6 1 3.2 1 4.9v1.1c0 1.7-0.4 3.4-1 4.9-0.6 1.6-1.6 3-2.8 4.2-1.2 1.2-2.6 2.1-4.1 2.8-1.6 0.6-3.3 1-5 1h-295.4c-1.7 0-3.3-0.4-4.9-1-1.5-0.7-3-1.6-4.2-2.8-1.1-1.2-2.1-2.6-2.7-4.2-0.7-1.5-1-3.2-1-4.9v-1.1c0-1.7 0.3-3.3 1-4.9 0.6-1.5 1.6-2.9 2.7-4.1 1.2-1.2 2.7-2.2 4.2-2.8 1.6-0.7 3.2-1 4.9-1z"/>
	<path id="Layer" class="s4" d="m474.5 149.6h-80c-2.5 0-4.9 0.5-7.3 1.3-2.4 0.9-4.5 2.1-6.5 3.7-1.9 1.5-3.6 3.4-4.9 5.6-1.3 2.1-2.2 4.5-2.7 6.9l-39 189.3h80l39-189.3c0.5-2.4 1.4-4.8 2.7-6.9 1.3-2.2 3-4.1 4.9-5.6 2-1.6 4.1-2.8 6.5-3.7 2.4-0.8 4.8-1.3 7.3-1.3z"/>
	<path id="Layer" class="s6" d="m395.9 370.3v-1.1c0-1.7 0.3-3.3 1-4.9 0.6-1.5 1.6-3 2.8-4.1 1.1-1.2 2.6-2.2 4.1-2.8 1.6-0.7 3.2-1 4.9-1h-80c-1.7 0-3.3 0.3-4.9 1-1.5 0.6-3 1.6-4.1 2.8-1.2 1.2-2.2 2.6-2.8 4.1-0.7 1.6-1 3.2-1 4.9v1.1c0 1.7 0.3 3.4 1 4.9 0.6 1.6 1.6 3 2.8 4.2 1.1 1.2 2.6 2.1 4.1 2.8 1.6 0.6 3.2 1 4.9 1h80c-1.7 0-3.3-0.4-4.9-1-1.5-0.7-3-1.6-4.2-2.8-1.1-1.2-2.1-2.6-2.7-4.2-0.7-1.5-1-3.2-1-4.9z"/>
	<path id="Layer" class="s7" d="m548.7 210.2c-1.6 0-3.1-0.3-4.6-0.9-1.4-0.6-2.7-1.5-3.9-2.6-1.1-1.1-2-2.4-2.6-3.8-0.6-1.4-0.9-3-0.9-4.5-0.1-3.8-1.4-4.9-2-5.4-4.3-3.5-15.6-3.4-21.8-2.3-6.5 1.2-12.8-3-14.1-9.5-0.3-1.6-0.3-3.1 0.1-4.7 0.3-1.5 0.9-3 1.8-4.3 0.8-1.3 2-2.4 3.3-3.3 1.3-0.8 2.8-1.4 4.3-1.7 2.7-0.6 26.8-4.8 41.5 7.2 4.9 4 10.7 11.3 10.9 23.7 0 1.5-0.3 3.1-0.9 4.6-0.6 1.4-1.4 2.8-2.5 3.9-1.1 1.1-2.4 2-3.9 2.6-1.4 0.7-3 1-4.6 1zm25.1 108.8q-2.1 0-4.1-0.7-1.9-0.7-3.5-2-1.6-1.4-2.7-3.2-1.1-1.8-1.5-3.8l-14.1-73.6c-0.6-3.1 0.1-6.3 1.9-8.9 1.8-2.6 4.5-4.4 7.6-5 3.1-0.6 6.3 0.1 9 1.8 2.6 1.8 4.4 4.5 5 7.6l14.2 73.6c0.3 1.7 0.3 3.5-0.2 5.2-0.4 1.7-1.2 3.3-2.3 4.7-1.2 1.3-2.6 2.4-4.2 3.2-1.6 0.7-3.3 1.1-5.1 1.1z"/>
	<path id="Layer" class="s4" d="m432.5 316.9c0 8 3.2 15.6 8.8 21.2 5.6 5.7 13.3 8.8 21.2 8.8 8 0 15.6-3.1 21.2-8.8 5.7-5.6 8.8-13.2 8.8-21.2 0-7.9-3.1-15.6-8.8-21.2-5.6-5.6-13.2-8.8-21.2-8.8-7.9 0-15.6 3.2-21.2 8.8-5.6 5.6-8.8 13.3-8.8 21.2z"/>
	<path id="Layer" class="s8" d="m837.5 383.2h-99.4c-2.9 0-5.9-0.5-8.7-1.3-2.8-0.9-5.5-2.1-8-3.7-2.4-1.6-4.7-3.6-6.5-5.9-1.9-2.2-3.5-4.7-4.7-7.4l-10.5-24.3h176.2l-10.5 24.3c-1.2 2.7-2.8 5.2-4.7 7.4-1.9 2.3-4.1 4.3-6.6 5.9-2.4 1.6-5.1 2.8-7.9 3.7-2.9 0.8-5.8 1.3-8.7 1.3z"/>
	<path id="Layer" class="s9" d="m790.2 364.9l-10.5-24.3h-80l10.5 24.3c1.2 2.7 2.8 5.2 4.7 7.4 1.8 2.3 4.1 4.3 6.5 5.9 2.5 1.6 5.2 2.8 8 3.7 2.8 0.8 5.8 1.3 8.7 1.3h80c-2.9 0-5.9-0.5-8.7-1.3-2.8-0.9-5.5-2.1-8-3.7-2.4-1.6-4.7-3.6-6.5-5.9-1.9-2.2-3.5-4.7-4.7-7.4z"/>
	<path id="Layer" class="s9" d="m868.5 355.2h-161.4c-2.5 0-5-0.4-7.3-1.3-2.4-0.8-4.6-2.1-6.5-3.6-2-1.6-3.6-3.5-4.9-5.7-1.3-2.1-2.2-4.4-2.7-6.9l-39-189.3h282.2l-39 189.3c-0.5 2.5-1.4 4.8-2.7 6.9-1.3 2.2-3 4.1-4.9 5.7-2 1.5-4.1 2.8-6.5 3.6-2.4 0.9-4.8 1.3-7.3 1.3z"/>
	<path id="Layer" class="s8" d="m934.3 148.4h-295.4c-1.7 0-3.4-0.3-5-0.9-1.5-0.7-2.9-1.6-4.1-2.8-1.2-1.2-2.2-2.6-2.8-4.2-0.6-1.6-1-3.2-1-4.9v-1.1c0-1.7 0.4-3.4 1-4.9 0.6-1.6 1.6-3 2.8-4.2 1.2-1.2 2.6-2.1 4.1-2.8 1.6-0.6 3.3-0.9 5-0.9h295.4c1.7 0 3.3 0.3 4.9 0.9 1.5 0.7 3 1.6 4.2 2.8 1.1 1.2 2.1 2.6 2.7 4.2 0.7 1.5 1 3.2 1 4.9v1.1c0 1.7-0.3 3.3-1 4.9-0.6 1.6-1.6 3-2.7 4.2-1.2 1.2-2.7 2.1-4.2 2.8-1.6 0.6-3.2 0.9-4.9 0.9z"/>
	<path id="Layer" class="s10" d="m928.9 148.4h-282.2l39 189.3c0.5 2.5 1.4 4.8 2.7 6.9 1.3 2.2 2.9 4.1 4.9 5.7 1.9 1.5 4.1 2.8 6.5 3.6 2.3 0.9 4.8 1.3 7.3 1.3h80c-2.5 0-5-0.4-7.3-1.3-2.4-0.8-4.6-2.1-6.5-3.6-2-1.6-3.6-3.5-4.9-5.7-1.3-2.1-2.2-4.4-2.7-6.9l-32.4-157.3c-1.3-6.2 3.5-12 9.8-12h181.6z"/>
	<path id="Layer" class="s9" d="m706 135.6v-1.1c0-1.7 0.4-3.4 1-4.9 0.7-1.6 1.6-3 2.8-4.2 1.2-1.2 2.6-2.1 4.1-2.8 1.6-0.6 3.3-0.9 5-0.9h-80c-1.7 0-3.4 0.3-5 0.9-1.5 0.7-2.9 1.6-4.1 2.8-1.2 1.2-2.1 2.6-2.8 4.2-0.6 1.5-1 3.2-1 4.9v1.1c0 1.7 0.4 3.3 1 4.9 0.7 1.6 1.6 3 2.8 4.2 1.2 1.2 2.6 2.1 4.1 2.8 1.6 0.6 3.3 0.9 5 0.9h80c-1.7 0-3.4-0.3-5-0.9-1.5-0.7-2.9-1.6-4.1-2.8-1.2-1.2-2.2-2.6-2.8-4.2-0.6-1.6-1-3.2-1-4.9z"/>
	<path id="Layer" class="s8" d="m835.4 339c-6.7 0-11.9-0.9-13.1-1.1-3.1-0.6-5.9-2.4-7.7-5.1-1.7-2.6-2.4-5.9-1.8-9 0.6-3.1 2.4-5.9 5.1-7.6 2.6-1.8 5.8-2.5 9-1.9 6.2 1.2 17.5 1.3 21.8-2.3 0.6-0.5 1.9-1.6 2-5.3 0-1.6 0.3-3.1 1-4.6 0.6-1.4 1.5-2.8 2.6-3.9 1.1-1.1 2.5-1.9 3.9-2.5 1.5-0.6 3.1-0.9 4.6-0.9 1.6 0.1 3.2 0.4 4.6 1 1.5 0.6 2.8 1.5 3.9 2.7 1.1 1.1 1.9 2.4 2.5 3.9 0.6 1.4 0.9 3 0.9 4.6-0.2 12.4-6 19.7-10.8 23.6-8.4 6.8-19.8 8.4-28.5 8.4zm38.2-55.4c-1.7 0-3.5-0.4-5.1-1.2-1.6-0.7-3-1.8-4.1-3.2-1.2-1.3-2-2.9-2.4-4.6-0.5-1.8-0.5-3.6-0.2-5.3l14.2-73.6c0.6-3 2.4-5.8 5.1-7.5 2.6-1.8 5.8-2.4 8.9-1.8 3.1 0.6 5.8 2.4 7.6 5 1.8 2.6 2.5 5.8 1.9 8.9l-14.1 73.5q-0.4 2.1-1.5 3.9-1 1.8-2.6 3.1-1.7 1.4-3.6 2.1-2 0.7-4.1 0.7z"/>
	<path id="Layer" class="s10" d="m751 209.5c0 7.9 3.1 15.6 8.8 21.2 5.6 5.6 13.2 8.8 21.2 8.8 7.9 0 15.6-3.2 21.2-8.8 5.6-5.6 8.8-13.3 8.8-21.2 0-8-3.2-15.6-8.8-21.2-5.6-5.7-13.3-8.8-21.2-8.8-8 0-15.6 3.1-21.2 8.8-5.7 5.6-8.8 13.2-8.8 21.2z"/>
	<path id="Layer" class="s2" d="m80.9 135.6v-1.1c0-1.7 0.3-3.4 1-4.9 0.6-1.6 1.6-3 2.7-4.2 1.2-1.2 2.7-2.1 4.2-2.8 1.6-0.6 3.2-0.9 4.9-0.9h-80c-1.7 0-3.3 0.3-4.9 0.9-1.5 0.7-3 1.6-4.2 2.8-1.1 1.2-2.1 2.6-2.7 4.2-0.7 1.5-1 3.2-1 4.9v1.1c0 1.7 0.3 3.3 1 4.9 0.6 1.6 1.6 3 2.7 4.2 1.2 1.2 2.7 2.1 4.2 2.8 1.6 0.6 3.2 0.9 4.9 0.9h80c-1.7 0-3.3-0.3-4.9-0.9-1.5-0.7-3-1.6-4.2-2.8-1.1-1.2-2.1-2.6-2.7-4.2-0.7-1.6-1-3.2-1-4.9z"/>
</svg>